<svg width="309" height="321" viewBox="0 0 309 321" fill="none" xmlns="http://www.w3.org/2000/svg">
<g filter="url(#filter0_d_311_1324)">
<rect x="53.8461" y="15" width="207.216" height="253.501" rx="21.3625" fill="url(#paint0_linear_311_1324)"/>
</g>
<g filter="url(#filter1_d_311_1324)">
<rect x="4.00012" y="28.5303" width="215.761" height="263.47" rx="21.3625" fill="url(#paint1_linear_311_1324)" shape-rendering="crispEdges"/>
</g>
<g filter="url(#filter2_d_311_1324)">
<rect x="19.6659" y="81.9355" width="172.324" height="14.9537" rx="7.47686" fill="white"/>
</g>
<g filter="url(#filter3_d_311_1324)">
<rect x="19.6659" y="116.116" width="141.704" height="14.9537" rx="7.47686" fill="white"/>
</g>
<g filter="url(#filter4_d_311_1324)">
<rect x="19.6659" y="261.38" width="44.8612" height="14.9537" rx="7.47686" fill="white"/>
</g>
<g filter="url(#filter5_d_311_1324)">
<path d="M20 164.287C24.4883 169.193 28.8401 173.61 33.0234 179.195C37.5714 170.057 42.2265 160.888 49.9073 150.958L47.8377 150C41.3521 156.948 36.3133 163.525 31.9351 171.341C28.8905 168.57 23.97 164.65 20.9656 162.635L20 164.287Z" fill="white"/>
</g>
<g filter="url(#filter6_d_311_1324)">
<path d="M24.4646 219.544C24.1318 219.233 23.6915 219.064 23.2366 219.072C22.7818 219.08 22.3478 219.265 22.0261 219.587C21.7044 219.91 21.5201 220.346 21.5121 220.803C21.504 221.259 21.6729 221.701 21.983 222.035L30.6919 230.777L21.983 239.518C21.8105 239.679 21.6722 239.874 21.5762 240.09C21.4802 240.306 21.4286 240.54 21.4245 240.776C21.4203 241.013 21.4637 241.248 21.552 241.468C21.6403 241.687 21.7717 241.886 21.9385 242.054C22.1052 242.221 22.3038 242.353 22.5224 242.442C22.7411 242.53 22.9752 242.574 23.211 242.57C23.4467 242.565 23.6792 242.514 23.8946 242.417C24.11 242.321 24.3039 242.182 24.4646 242.009L33.1735 233.267L41.8824 242.009C42.0431 242.182 42.2369 242.321 42.4523 242.417C42.6677 242.514 42.9002 242.565 43.136 242.57C43.3717 242.574 43.6059 242.53 43.8245 242.442C44.0432 242.353 44.2418 242.221 44.4085 242.054C44.5752 241.886 44.7067 241.687 44.795 241.468C44.8833 241.248 44.9266 241.013 44.9225 240.776C44.9183 240.54 44.8667 240.306 44.7708 240.09C44.6748 239.874 44.5364 239.679 44.3639 239.518L35.655 230.777L44.3639 222.035C44.6741 221.701 44.8429 221.259 44.8349 220.803C44.8269 220.346 44.6426 219.91 44.3209 219.587C43.9992 219.265 43.5652 219.08 43.1103 219.072C42.6554 219.064 42.2152 219.233 41.8824 219.544L33.1735 228.286L24.4646 219.544Z" fill="white"/>
</g>
<g filter="url(#filter7_d_311_1324)">
<path d="M24.4646 188.213C24.1318 187.902 23.6915 187.732 23.2366 187.741C22.7818 187.749 22.3478 187.934 22.0261 188.256C21.7044 188.579 21.5201 189.015 21.5121 189.472C21.504 189.928 21.6729 190.37 21.983 190.704L30.6919 199.446L21.983 208.187C21.8105 208.348 21.6722 208.543 21.5762 208.759C21.4802 208.975 21.4286 209.209 21.4245 209.445C21.4203 209.682 21.4637 209.917 21.552 210.136C21.6403 210.356 21.7717 210.555 21.9385 210.723C22.1052 210.89 22.3038 211.022 22.5224 211.111C22.7411 211.199 22.9752 211.243 23.211 211.239C23.4467 211.234 23.6792 211.183 23.8946 211.086C24.11 210.99 24.3039 210.851 24.4646 210.678L33.1735 201.936L41.8824 210.678C42.0431 210.851 42.2369 210.99 42.4523 211.086C42.6677 211.183 42.9002 211.234 43.136 211.239C43.3717 211.243 43.6059 211.199 43.8245 211.111C44.0432 211.022 44.2418 210.89 44.4085 210.723C44.5752 210.555 44.7067 210.356 44.795 210.136C44.8833 209.917 44.9266 209.682 44.9225 209.445C44.9183 209.209 44.8667 208.975 44.7708 208.759C44.6748 208.543 44.5364 208.348 44.3639 208.187L35.655 199.446L44.3639 190.704C44.6741 190.37 44.8429 189.928 44.8349 189.472C44.8269 189.015 44.6426 188.579 44.3209 188.256C43.9992 187.934 43.5652 187.749 43.1103 187.741C42.6554 187.732 42.2152 187.902 41.8824 188.213L33.1735 196.955L24.4646 188.213Z" fill="white"/>
</g>
<defs>
<filter id="filter0_d_311_1324" x="24.6507" y="0.758356" width="284.121" height="330.406" filterUnits="userSpaceOnUse" color-interpolation-filters="sRGB">
<feFlood flood-opacity="0" result="BackgroundImageFix"/>
<feColorMatrix in="SourceAlpha" type="matrix" values="0 0 0 0 0 0 0 0 0 0 0 0 0 0 0 0 0 0 127 0" result="hardAlpha"/>
<feOffset dx="9.25707" dy="24.2108"/>
<feGaussianBlur stdDeviation="19.2262"/>
<feComposite in2="hardAlpha" operator="out"/>
<feColorMatrix type="matrix" values="0 0 0 0 0 0 0 0 0 0 0 0 0 0 0 0 0 0 0.37 0"/>
<feBlend mode="normal" in2="BackgroundImageFix" result="effect1_dropShadow_311_1324"/>
<feBlend mode="normal" in="SourceGraphic" in2="effect1_dropShadow_311_1324" result="shape"/>
</filter>
<filter id="filter1_d_311_1324" x="0.43971" y="10.0161" width="248.517" height="296.226" filterUnits="userSpaceOnUse" color-interpolation-filters="sRGB">
<feFlood flood-opacity="0" result="BackgroundImageFix"/>
<feColorMatrix in="SourceAlpha" type="matrix" values="0 0 0 0 0 0 0 0 0 0 0 0 0 0 0 0 0 0 127 0" result="hardAlpha"/>
<feOffset dx="12.8175" dy="-2.13625"/>
<feGaussianBlur stdDeviation="8.18895"/>
<feComposite in2="hardAlpha" operator="out"/>
<feColorMatrix type="matrix" values="0 0 0 0 0 0 0 0 0 0 0 0 0 0 0 0 0 0 0.12 0"/>
<feBlend mode="normal" in2="BackgroundImageFix" result="effect1_dropShadow_311_1324"/>
<feBlend mode="normal" in="SourceGraphic" in2="effect1_dropShadow_311_1324" result="shape"/>
</filter>
<filter id="filter2_d_311_1324" x="13.2572" y="81.9355" width="190.838" height="33.4682" filterUnits="userSpaceOnUse" color-interpolation-filters="sRGB">
<feFlood flood-opacity="0" result="BackgroundImageFix"/>
<feColorMatrix in="SourceAlpha" type="matrix" values="0 0 0 0 0 0 0 0 0 0 0 0 0 0 0 0 0 0 127 0" result="hardAlpha"/>
<feOffset dx="2.84833" dy="9.25707"/>
<feGaussianBlur stdDeviation="4.62854"/>
<feComposite in2="hardAlpha" operator="out"/>
<feColorMatrix type="matrix" values="0 0 0 0 0 0 0 0 0 0 0 0 0 0 0 0 0 0 0.23 0"/>
<feBlend mode="normal" in2="BackgroundImageFix" result="effect1_dropShadow_311_1324"/>
<feBlend mode="normal" in="SourceGraphic" in2="effect1_dropShadow_311_1324" result="shape"/>
</filter>
<filter id="filter3_d_311_1324" x="14.6813" y="116.116" width="160.218" height="34.1803" filterUnits="userSpaceOnUse" color-interpolation-filters="sRGB">
<feFlood flood-opacity="0" result="BackgroundImageFix"/>
<feColorMatrix in="SourceAlpha" type="matrix" values="0 0 0 0 0 0 0 0 0 0 0 0 0 0 0 0 0 0 127 0" result="hardAlpha"/>
<feOffset dx="4.27249" dy="9.96915"/>
<feGaussianBlur stdDeviation="4.62854"/>
<feComposite in2="hardAlpha" operator="out"/>
<feColorMatrix type="matrix" values="0 0 0 0 0 0 0 0 0 0 0 0 0 0 0 0 0 0 0.25 0"/>
<feBlend mode="normal" in2="BackgroundImageFix" result="effect1_dropShadow_311_1324"/>
<feBlend mode="normal" in="SourceGraphic" in2="effect1_dropShadow_311_1324" result="shape"/>
</filter>
<filter id="filter4_d_311_1324" x="15.3934" y="261.38" width="63.3753" height="33.4682" filterUnits="userSpaceOnUse" color-interpolation-filters="sRGB">
<feFlood flood-opacity="0" result="BackgroundImageFix"/>
<feColorMatrix in="SourceAlpha" type="matrix" values="0 0 0 0 0 0 0 0 0 0 0 0 0 0 0 0 0 0 127 0" result="hardAlpha"/>
<feOffset dx="4.98458" dy="9.25707"/>
<feGaussianBlur stdDeviation="4.62854"/>
<feComposite in2="hardAlpha" operator="out"/>
<feColorMatrix type="matrix" values="0 0 0 0 0 0 0 0 0 0 0 0 0 0 0 0 0 0 0.25 0"/>
<feBlend mode="normal" in2="BackgroundImageFix" result="effect1_dropShadow_311_1324"/>
<feBlend mode="normal" in="SourceGraphic" in2="effect1_dropShadow_311_1324" result="shape"/>
</filter>
<filter id="filter5_d_311_1324" x="9" y="143" width="51.9072" height="51.1953" filterUnits="userSpaceOnUse" color-interpolation-filters="sRGB">
<feFlood flood-opacity="0" result="BackgroundImageFix"/>
<feColorMatrix in="SourceAlpha" type="matrix" values="0 0 0 0 0 0 0 0 0 0 0 0 0 0 0 0 0 0 127 0" result="hardAlpha"/>
<feOffset dy="4"/>
<feGaussianBlur stdDeviation="5.5"/>
<feComposite in2="hardAlpha" operator="out"/>
<feColorMatrix type="matrix" values="0 0 0 0 0 0 0 0 0 0 0 0 0 0 0 0 0 0 0.25 0"/>
<feBlend mode="normal" in2="BackgroundImageFix" result="effect1_dropShadow_311_1324"/>
<feBlend mode="normal" in="SourceGraphic" in2="effect1_dropShadow_311_1324" result="shape"/>
</filter>
<filter id="filter6_d_311_1324" x="17.4242" y="219.071" width="31.4985" height="31.499" filterUnits="userSpaceOnUse" color-interpolation-filters="sRGB">
<feFlood flood-opacity="0" result="BackgroundImageFix"/>
<feColorMatrix in="SourceAlpha" type="matrix" values="0 0 0 0 0 0 0 0 0 0 0 0 0 0 0 0 0 0 127 0" result="hardAlpha"/>
<feOffset dy="4"/>
<feGaussianBlur stdDeviation="2"/>
<feComposite in2="hardAlpha" operator="out"/>
<feColorMatrix type="matrix" values="0 0 0 0 0 0 0 0 0 0 0 0 0 0 0 0 0 0 0.25 0"/>
<feBlend mode="normal" in2="BackgroundImageFix" result="effect1_dropShadow_311_1324"/>
<feBlend mode="normal" in="SourceGraphic" in2="effect1_dropShadow_311_1324" result="shape"/>
</filter>
<filter id="filter7_d_311_1324" x="17.4242" y="187.74" width="31.4985" height="31.499" filterUnits="userSpaceOnUse" color-interpolation-filters="sRGB">
<feFlood flood-opacity="0" result="BackgroundImageFix"/>
<feColorMatrix in="SourceAlpha" type="matrix" values="0 0 0 0 0 0 0 0 0 0 0 0 0 0 0 0 0 0 127 0" result="hardAlpha"/>
<feOffset dy="4"/>
<feGaussianBlur stdDeviation="2"/>
<feComposite in2="hardAlpha" operator="out"/>
<feColorMatrix type="matrix" values="0 0 0 0 0 0 0 0 0 0 0 0 0 0 0 0 0 0 0.25 0"/>
<feBlend mode="normal" in2="BackgroundImageFix" result="effect1_dropShadow_311_1324"/>
<feBlend mode="normal" in="SourceGraphic" in2="effect1_dropShadow_311_1324" result="shape"/>
</filter>
<linearGradient id="paint0_linear_311_1324" x1="234.359" y1="279.539" x2="150.441" y2="108.041" gradientUnits="userSpaceOnUse">
<stop stop-color="#E1E1E1"/>
<stop offset="1" stop-color="white"/>
</linearGradient>
<linearGradient id="paint1_linear_311_1324" x1="219.761" y1="321.552" x2="-91.0196" y2="-437.021" gradientUnits="userSpaceOnUse">
<stop stop-color="#F24E1E"/>
<stop offset="1" stop-color="#FFC5B4" stop-opacity="0.37"/>
</linearGradient>
</defs>
</svg>
