<svg width="433" height="426" viewBox="0 0 433 426" fill="none" xmlns="http://www.w3.org/2000/svg">
<g filter="url(#filter0_d_176_152)">
<rect x="75" y="20" width="291" height="356" rx="30" fill="url(#paint0_linear_176_152)"/>
</g>
<g filter="url(#filter1_d_176_152)">
<rect x="5" y="39" width="303" height="370" rx="30" fill="url(#paint1_linear_176_152)" shape-rendering="crispEdges"/>
</g>
<g filter="url(#filter2_d_176_152)">
<rect x="27" y="114" width="242" height="21" rx="10.5" fill="white"/>
</g>
<g filter="url(#filter3_d_176_152)">
<rect x="27" y="162" width="199" height="21" rx="10.5" fill="white"/>
</g>
<g filter="url(#filter4_d_176_152)">
<rect x="27" y="366" width="63" height="21" rx="10.5" fill="white"/>
</g>
<g filter="url(#filter5_d_176_152)">
<path d="M241.103 328.71H261.897C262.649 328.71 263.29 328.213 263.327 327.593L268.997 247.251C269.022 246.923 268.874 246.607 268.603 246.376C268.332 246.134 267.962 246 267.567 246H235.42C235.026 246 234.656 246.134 234.385 246.376C234.126 246.607 233.978 246.935 234.003 247.251L239.673 327.593C239.71 328.213 240.338 328.71 241.103 328.71ZM234.668 370.946C234.668 367.983 235.1 365.481 235.963 363.429C236.825 361.377 238.021 359.725 239.562 358.475C241.09 357.212 242.902 356.301 244.985 355.73C247.056 355.171 249.275 354.88 251.654 354.88C253.897 354.88 256.018 355.171 258.039 355.73C260.048 356.301 261.823 357.212 263.364 358.475C264.893 359.725 266.113 361.377 267.013 363.429C267.913 365.481 268.356 367.983 268.356 370.946C268.356 373.776 267.913 376.192 267.013 378.208C266.113 380.236 264.905 381.9 263.364 383.223C261.823 384.547 260.061 385.494 258.039 386.101C256.018 386.696 253.897 387 251.654 387C249.287 387 247.069 386.696 244.985 386.101C242.902 385.494 241.09 384.535 239.562 383.223C238.033 381.888 236.825 380.236 235.963 378.208C235.1 376.204 234.668 373.776 234.668 370.946Z" fill="white"/>
</g>
<defs>
<filter id="filter0_d_176_152" x="34" y="0" width="399" height="464" filterUnits="userSpaceOnUse" color-interpolation-filters="sRGB">
<feFlood flood-opacity="0" result="BackgroundImageFix"/>
<feColorMatrix in="SourceAlpha" type="matrix" values="0 0 0 0 0 0 0 0 0 0 0 0 0 0 0 0 0 0 127 0" result="hardAlpha"/>
<feOffset dx="13" dy="34"/>
<feGaussianBlur stdDeviation="27"/>
<feComposite in2="hardAlpha" operator="out"/>
<feColorMatrix type="matrix" values="0 0 0 0 0 0 0 0 0 0 0 0 0 0 0 0 0 0 0.37 0"/>
<feBlend mode="normal" in2="BackgroundImageFix" result="effect1_dropShadow_176_152"/>
<feBlend mode="normal" in="SourceGraphic" in2="effect1_dropShadow_176_152" result="shape"/>
</filter>
<filter id="filter1_d_176_152" x="0" y="13" width="349" height="416" filterUnits="userSpaceOnUse" color-interpolation-filters="sRGB">
<feFlood flood-opacity="0" result="BackgroundImageFix"/>
<feColorMatrix in="SourceAlpha" type="matrix" values="0 0 0 0 0 0 0 0 0 0 0 0 0 0 0 0 0 0 127 0" result="hardAlpha"/>
<feOffset dx="18" dy="-3"/>
<feGaussianBlur stdDeviation="11.5"/>
<feComposite in2="hardAlpha" operator="out"/>
<feColorMatrix type="matrix" values="0 0 0 0 0 0 0 0 0 0 0 0 0 0 0 0 0 0 0.12 0"/>
<feBlend mode="normal" in2="BackgroundImageFix" result="effect1_dropShadow_176_152"/>
<feBlend mode="normal" in="SourceGraphic" in2="effect1_dropShadow_176_152" result="shape"/>
</filter>
<filter id="filter2_d_176_152" x="18" y="114" width="268" height="47" filterUnits="userSpaceOnUse" color-interpolation-filters="sRGB">
<feFlood flood-opacity="0" result="BackgroundImageFix"/>
<feColorMatrix in="SourceAlpha" type="matrix" values="0 0 0 0 0 0 0 0 0 0 0 0 0 0 0 0 0 0 127 0" result="hardAlpha"/>
<feOffset dx="4" dy="13"/>
<feGaussianBlur stdDeviation="6.5"/>
<feComposite in2="hardAlpha" operator="out"/>
<feColorMatrix type="matrix" values="0 0 0 0 0 0 0 0 0 0 0 0 0 0 0 0 0 0 0.23 0"/>
<feBlend mode="normal" in2="BackgroundImageFix" result="effect1_dropShadow_176_152"/>
<feBlend mode="normal" in="SourceGraphic" in2="effect1_dropShadow_176_152" result="shape"/>
</filter>
<filter id="filter3_d_176_152" x="20" y="162" width="225" height="48" filterUnits="userSpaceOnUse" color-interpolation-filters="sRGB">
<feFlood flood-opacity="0" result="BackgroundImageFix"/>
<feColorMatrix in="SourceAlpha" type="matrix" values="0 0 0 0 0 0 0 0 0 0 0 0 0 0 0 0 0 0 127 0" result="hardAlpha"/>
<feOffset dx="6" dy="14"/>
<feGaussianBlur stdDeviation="6.5"/>
<feComposite in2="hardAlpha" operator="out"/>
<feColorMatrix type="matrix" values="0 0 0 0 0 0 0 0 0 0 0 0 0 0 0 0 0 0 0.25 0"/>
<feBlend mode="normal" in2="BackgroundImageFix" result="effect1_dropShadow_176_152"/>
<feBlend mode="normal" in="SourceGraphic" in2="effect1_dropShadow_176_152" result="shape"/>
</filter>
<filter id="filter4_d_176_152" x="21" y="366" width="89" height="47" filterUnits="userSpaceOnUse" color-interpolation-filters="sRGB">
<feFlood flood-opacity="0" result="BackgroundImageFix"/>
<feColorMatrix in="SourceAlpha" type="matrix" values="0 0 0 0 0 0 0 0 0 0 0 0 0 0 0 0 0 0 127 0" result="hardAlpha"/>
<feOffset dx="7" dy="13"/>
<feGaussianBlur stdDeviation="6.5"/>
<feComposite in2="hardAlpha" operator="out"/>
<feColorMatrix type="matrix" values="0 0 0 0 0 0 0 0 0 0 0 0 0 0 0 0 0 0 0.25 0"/>
<feBlend mode="normal" in2="BackgroundImageFix" result="effect1_dropShadow_176_152"/>
<feBlend mode="normal" in="SourceGraphic" in2="effect1_dropShadow_176_152" result="shape"/>
</filter>
<filter id="filter5_d_176_152" x="206" y="236" width="91" height="197" filterUnits="userSpaceOnUse" color-interpolation-filters="sRGB">
<feFlood flood-opacity="0" result="BackgroundImageFix"/>
<feColorMatrix in="SourceAlpha" type="matrix" values="0 0 0 0 0 0 0 0 0 0 0 0 0 0 0 0 0 0 127 0" result="hardAlpha"/>
<feOffset dy="18"/>
<feGaussianBlur stdDeviation="14"/>
<feComposite in2="hardAlpha" operator="out"/>
<feColorMatrix type="matrix" values="0 0 0 0 0 0 0 0 0 0 0 0 0 0 0 0 0 0 0.29 0"/>
<feBlend mode="normal" in2="BackgroundImageFix" result="effect1_dropShadow_176_152"/>
<feBlend mode="normal" in="SourceGraphic" in2="effect1_dropShadow_176_152" result="shape"/>
</filter>
<linearGradient id="paint0_linear_176_152" x1="328.5" y1="391.5" x2="210.651" y2="150.661" gradientUnits="userSpaceOnUse">
<stop stop-color="#E1E1E1"/>
<stop offset="1" stop-color="white"/>
</linearGradient>
<linearGradient id="paint1_linear_176_152" x1="308" y1="450.5" x2="-128.439" y2="-614.789" gradientUnits="userSpaceOnUse">
<stop stop-color="#F24E1E"/>
<stop offset="1" stop-color="#FFC5B4" stop-opacity="0.37"/>
</linearGradient>
</defs>
</svg>
