<svg width="296" height="330" viewBox="0 0 296 330" fill="none" xmlns="http://www.w3.org/2000/svg">
<g filter="url(#filter0_d_223_739)">
<rect x="56.1298" y="22" width="208.976" height="256.024" rx="32.8235" fill="url(#paint0_linear_223_739)"/>
</g>
<g filter="url(#filter1_d_223_739)">
<rect x="5.80029" y="35.1304" width="217.729" height="265.871" rx="32.8235" fill="url(#paint1_linear_223_739)" shape-rendering="crispEdges"/>
</g>
<g filter="url(#filter2_d_223_739)">
<rect x="21.1177" y="89.8367" width="173.965" height="14.2235" rx="7.11176" fill="white"/>
</g>
<g filter="url(#filter3_d_223_739)">
<rect x="21.1177" y="123.752" width="143.329" height="15.3176" rx="7.65882" fill="white"/>
</g>
<g filter="url(#filter4_d_223_739)">
<rect x="21.1177" y="270.365" width="45.9529" height="15.3176" rx="7.65882" fill="white"/>
</g>
<g filter="url(#filter5_d_223_739)">
<path d="M175.025 243.617H189.976C190.517 243.617 190.977 243.258 191.004 242.811L195.081 184.831C195.098 184.595 194.992 184.367 194.797 184.201C194.602 184.025 194.336 183.929 194.053 183.929H170.939C170.655 183.929 170.39 184.025 170.195 184.201C170.009 184.367 169.902 184.604 169.92 184.831L173.997 242.811C174.023 243.258 174.475 243.617 175.025 243.617ZM170.398 274.096C170.398 271.958 170.709 270.153 171.329 268.672C171.949 267.191 172.809 265.999 173.917 265.096C175.016 264.185 176.319 263.528 177.816 263.116C179.305 262.713 180.901 262.502 182.611 262.502C184.224 262.502 185.748 262.713 187.202 263.116C188.647 263.528 189.923 264.185 191.031 265.096C192.13 265.999 193.007 267.191 193.654 268.672C194.301 270.153 194.62 271.958 194.62 274.096C194.62 276.138 194.301 277.882 193.654 279.337C193.007 280.8 192.138 282.001 191.031 282.956C189.923 283.912 188.655 284.595 187.202 285.033C185.748 285.463 184.224 285.682 182.611 285.682C180.909 285.682 179.314 285.463 177.816 285.033C176.319 284.595 175.016 283.903 173.917 282.956C172.818 281.992 171.949 280.8 171.329 279.337C170.709 277.891 170.398 276.138 170.398 274.096Z" fill="white"/>
</g>
<defs>
<filter id="filter0_d_223_739" x="11.2709" y="0.117645" width="327.141" height="374.188" filterUnits="userSpaceOnUse" color-interpolation-filters="sRGB">
<feFlood flood-opacity="0" result="BackgroundImageFix"/>
<feColorMatrix in="SourceAlpha" type="matrix" values="0 0 0 0 0 0 0 0 0 0 0 0 0 0 0 0 0 0 127 0" result="hardAlpha"/>
<feOffset dx="14.2235" dy="37.2"/>
<feGaussianBlur stdDeviation="29.5412"/>
<feComposite in2="hardAlpha" operator="out"/>
<feColorMatrix type="matrix" values="0 0 0 0 0 0 0 0 0 0 0 0 0 0 0 0 0 0 0.37 0"/>
<feBlend mode="normal" in2="BackgroundImageFix" result="effect1_dropShadow_223_739"/>
<feBlend mode="normal" in="SourceGraphic" in2="effect1_dropShadow_223_739" result="shape"/>
</filter>
<filter id="filter1_d_223_739" x="0.329702" y="6.68331" width="268.059" height="316.2" filterUnits="userSpaceOnUse" color-interpolation-filters="sRGB">
<feFlood flood-opacity="0" result="BackgroundImageFix"/>
<feColorMatrix in="SourceAlpha" type="matrix" values="0 0 0 0 0 0 0 0 0 0 0 0 0 0 0 0 0 0 127 0" result="hardAlpha"/>
<feOffset dx="19.6941" dy="-3.28235"/>
<feGaussianBlur stdDeviation="12.5824"/>
<feComposite in2="hardAlpha" operator="out"/>
<feColorMatrix type="matrix" values="0 0 0 0 0 0 0 0 0 0 0 0 0 0 0 0 0 0 0.12 0"/>
<feBlend mode="normal" in2="BackgroundImageFix" result="effect1_dropShadow_223_739"/>
<feBlend mode="normal" in="SourceGraphic" in2="effect1_dropShadow_223_739" result="shape"/>
</filter>
<filter id="filter2_d_223_739" x="11.2706" y="89.8367" width="202.412" height="42.6706" filterUnits="userSpaceOnUse" color-interpolation-filters="sRGB">
<feFlood flood-opacity="0" result="BackgroundImageFix"/>
<feColorMatrix in="SourceAlpha" type="matrix" values="0 0 0 0 0 0 0 0 0 0 0 0 0 0 0 0 0 0 127 0" result="hardAlpha"/>
<feOffset dx="4.37647" dy="14.2235"/>
<feGaussianBlur stdDeviation="7.11176"/>
<feComposite in2="hardAlpha" operator="out"/>
<feColorMatrix type="matrix" values="0 0 0 0 0 0 0 0 0 0 0 0 0 0 0 0 0 0 0.23 0"/>
<feBlend mode="normal" in2="BackgroundImageFix" result="effect1_dropShadow_223_739"/>
<feBlend mode="normal" in="SourceGraphic" in2="effect1_dropShadow_223_739" result="shape"/>
</filter>
<filter id="filter3_d_223_739" x="13.4589" y="123.752" width="171.776" height="44.8588" filterUnits="userSpaceOnUse" color-interpolation-filters="sRGB">
<feFlood flood-opacity="0" result="BackgroundImageFix"/>
<feColorMatrix in="SourceAlpha" type="matrix" values="0 0 0 0 0 0 0 0 0 0 0 0 0 0 0 0 0 0 127 0" result="hardAlpha"/>
<feOffset dx="6.56471" dy="15.3176"/>
<feGaussianBlur stdDeviation="7.11176"/>
<feComposite in2="hardAlpha" operator="out"/>
<feColorMatrix type="matrix" values="0 0 0 0 0 0 0 0 0 0 0 0 0 0 0 0 0 0 0.25 0"/>
<feBlend mode="normal" in2="BackgroundImageFix" result="effect1_dropShadow_223_739"/>
<feBlend mode="normal" in="SourceGraphic" in2="effect1_dropShadow_223_739" result="shape"/>
</filter>
<filter id="filter4_d_223_739" x="14.553" y="270.365" width="74.3999" height="43.7647" filterUnits="userSpaceOnUse" color-interpolation-filters="sRGB">
<feFlood flood-opacity="0" result="BackgroundImageFix"/>
<feColorMatrix in="SourceAlpha" type="matrix" values="0 0 0 0 0 0 0 0 0 0 0 0 0 0 0 0 0 0 127 0" result="hardAlpha"/>
<feOffset dx="7.65882" dy="14.2235"/>
<feGaussianBlur stdDeviation="7.11176"/>
<feComposite in2="hardAlpha" operator="out"/>
<feColorMatrix type="matrix" values="0 0 0 0 0 0 0 0 0 0 0 0 0 0 0 0 0 0 0.25 0"/>
<feBlend mode="normal" in2="BackgroundImageFix" result="effect1_dropShadow_223_739"/>
<feBlend mode="normal" in="SourceGraphic" in2="effect1_dropShadow_223_739" result="shape"/>
</filter>
<filter id="filter5_d_223_739" x="139.283" y="172.988" width="86.4353" height="163.024" filterUnits="userSpaceOnUse" color-interpolation-filters="sRGB">
<feFlood flood-opacity="0" result="BackgroundImageFix"/>
<feColorMatrix in="SourceAlpha" type="matrix" values="0 0 0 0 0 0 0 0 0 0 0 0 0 0 0 0 0 0 127 0" result="hardAlpha"/>
<feOffset dy="19.6941"/>
<feGaussianBlur stdDeviation="15.3176"/>
<feComposite in2="hardAlpha" operator="out"/>
<feColorMatrix type="matrix" values="0 0 0 0 0 0 0 0 0 0 0 0 0 0 0 0 0 0 0.29 0"/>
<feBlend mode="normal" in2="BackgroundImageFix" result="effect1_dropShadow_223_739"/>
<feBlend mode="normal" in="SourceGraphic" in2="effect1_dropShadow_223_739" result="shape"/>
</filter>
<linearGradient id="paint0_linear_223_739" x1="238.176" y1="289.171" x2="153.348" y2="116.063" gradientUnits="userSpaceOnUse">
<stop stop-color="#E1E1E1"/>
<stop offset="1" stop-color="white"/>
</linearGradient>
<linearGradient id="paint1_linear_223_739" x1="223.53" y1="330.822" x2="-90.0791" y2="-434.665" gradientUnits="userSpaceOnUse">
<stop stop-color="#F24E1E"/>
<stop offset="1" stop-color="#FFC5B4" stop-opacity="0.37"/>
</linearGradient>
</defs>
</svg>
