<svg width="313" height="324" viewBox="0 0 313 324" fill="none" xmlns="http://www.w3.org/2000/svg">
<g filter="url(#filter0_d_311_940)">
<rect x="54.446" y="20" width="205.554" height="251.468" rx="30" fill="url(#paint0_linear_311_940)"/>
</g>
<g filter="url(#filter1_d_311_940)">
<rect x="5" y="33.421" width="214.03" height="261.357" rx="30" fill="url(#paint1_linear_311_940)" shape-rendering="crispEdges"/>
</g>
<g filter="url(#filter2_d_311_940)">
<rect x="20.54" y="86.3984" width="170.942" height="14.8338" rx="7.4169" fill="white"/>
</g>
<g filter="url(#filter3_d_311_940)">
<rect x="20.5402" y="120.305" width="140.568" height="14.8338" rx="7.4169" fill="white"/>
</g>
<g filter="url(#filter4_d_311_940)">
<rect x="20.5402" y="264.404" width="44.5014" height="14.8338" rx="7.4169" fill="white"/>
</g>
<g filter="url(#filter5_d_311_940)">
<path d="M182.897 220.956V219.617C182.932 213.401 183.516 208.456 184.649 204.781C185.816 201.107 187.465 198.153 189.594 195.921C191.723 193.655 194.316 191.577 197.372 189.688C199.467 188.383 201.339 186.958 202.987 185.413C204.67 183.833 205.992 182.082 206.954 180.158C207.915 178.201 208.396 176.02 208.396 173.616C208.396 170.904 207.761 168.551 206.49 166.559C205.219 164.568 203.502 163.022 201.339 161.923C199.21 160.824 196.823 160.275 194.179 160.275C191.74 160.275 189.422 160.807 187.224 161.872C185.061 162.902 183.258 164.482 181.816 166.611C180.408 168.706 179.618 171.367 179.446 174.595H161.108C161.28 168.07 162.859 162.61 165.847 158.214C168.869 153.819 172.853 150.522 177.798 148.324C182.777 146.126 188.272 145.027 194.282 145.027C200.841 145.027 206.61 146.178 211.59 148.479C216.603 150.78 220.501 154.059 223.283 158.317C226.099 162.541 227.507 167.555 227.507 173.359C227.507 177.274 226.871 180.777 225.601 183.867C224.365 186.958 222.596 189.705 220.295 192.109C217.994 194.513 215.264 196.659 212.105 198.548C209.323 200.265 207.039 202.051 205.254 203.905C203.502 205.76 202.197 207.941 201.339 210.448C200.515 212.92 200.085 215.976 200.051 219.617V220.956H182.897ZM191.861 253.099C188.77 253.099 186.108 252 183.876 249.803C181.644 247.605 180.528 244.926 180.528 241.767C180.528 238.676 181.644 236.032 183.876 233.834C186.108 231.636 188.77 230.537 191.861 230.537C194.917 230.537 197.561 231.636 199.793 233.834C202.06 236.032 203.193 238.676 203.193 241.767C203.193 243.862 202.661 245.768 201.596 247.485C200.566 249.202 199.192 250.575 197.475 251.606C195.793 252.601 193.921 253.099 191.861 253.099Z" fill="white"/>
</g>
<defs>
<filter id="filter0_d_311_940" x="13.446" y="0" width="313.554" height="359.468" filterUnits="userSpaceOnUse" color-interpolation-filters="sRGB">
<feFlood flood-opacity="0" result="BackgroundImageFix"/>
<feColorMatrix in="SourceAlpha" type="matrix" values="0 0 0 0 0 0 0 0 0 0 0 0 0 0 0 0 0 0 127 0" result="hardAlpha"/>
<feOffset dx="13" dy="34"/>
<feGaussianBlur stdDeviation="27"/>
<feComposite in2="hardAlpha" operator="out"/>
<feColorMatrix type="matrix" values="0 0 0 0 0 0 0 0 0 0 0 0 0 0 0 0 0 0 0.37 0"/>
<feBlend mode="normal" in2="BackgroundImageFix" result="effect1_dropShadow_311_940"/>
<feBlend mode="normal" in="SourceGraphic" in2="effect1_dropShadow_311_940" result="shape"/>
</filter>
<filter id="filter1_d_311_940" x="0" y="7.42102" width="260.031" height="307.357" filterUnits="userSpaceOnUse" color-interpolation-filters="sRGB">
<feFlood flood-opacity="0" result="BackgroundImageFix"/>
<feColorMatrix in="SourceAlpha" type="matrix" values="0 0 0 0 0 0 0 0 0 0 0 0 0 0 0 0 0 0 127 0" result="hardAlpha"/>
<feOffset dx="18" dy="-3"/>
<feGaussianBlur stdDeviation="11.5"/>
<feComposite in2="hardAlpha" operator="out"/>
<feColorMatrix type="matrix" values="0 0 0 0 0 0 0 0 0 0 0 0 0 0 0 0 0 0 0.12 0"/>
<feBlend mode="normal" in2="BackgroundImageFix" result="effect1_dropShadow_311_940"/>
<feBlend mode="normal" in="SourceGraphic" in2="effect1_dropShadow_311_940" result="shape"/>
</filter>
<filter id="filter2_d_311_940" x="11.54" y="86.3984" width="196.942" height="40.8337" filterUnits="userSpaceOnUse" color-interpolation-filters="sRGB">
<feFlood flood-opacity="0" result="BackgroundImageFix"/>
<feColorMatrix in="SourceAlpha" type="matrix" values="0 0 0 0 0 0 0 0 0 0 0 0 0 0 0 0 0 0 127 0" result="hardAlpha"/>
<feOffset dx="4" dy="13"/>
<feGaussianBlur stdDeviation="6.5"/>
<feComposite in2="hardAlpha" operator="out"/>
<feColorMatrix type="matrix" values="0 0 0 0 0 0 0 0 0 0 0 0 0 0 0 0 0 0 0.23 0"/>
<feBlend mode="normal" in2="BackgroundImageFix" result="effect1_dropShadow_311_940"/>
<feBlend mode="normal" in="SourceGraphic" in2="effect1_dropShadow_311_940" result="shape"/>
</filter>
<filter id="filter3_d_311_940" x="13.5402" y="120.305" width="166.568" height="41.8337" filterUnits="userSpaceOnUse" color-interpolation-filters="sRGB">
<feFlood flood-opacity="0" result="BackgroundImageFix"/>
<feColorMatrix in="SourceAlpha" type="matrix" values="0 0 0 0 0 0 0 0 0 0 0 0 0 0 0 0 0 0 127 0" result="hardAlpha"/>
<feOffset dx="6" dy="14"/>
<feGaussianBlur stdDeviation="6.5"/>
<feComposite in2="hardAlpha" operator="out"/>
<feColorMatrix type="matrix" values="0 0 0 0 0 0 0 0 0 0 0 0 0 0 0 0 0 0 0.25 0"/>
<feBlend mode="normal" in2="BackgroundImageFix" result="effect1_dropShadow_311_940"/>
<feBlend mode="normal" in="SourceGraphic" in2="effect1_dropShadow_311_940" result="shape"/>
</filter>
<filter id="filter4_d_311_940" x="14.5402" y="264.404" width="70.5013" height="40.8338" filterUnits="userSpaceOnUse" color-interpolation-filters="sRGB">
<feFlood flood-opacity="0" result="BackgroundImageFix"/>
<feColorMatrix in="SourceAlpha" type="matrix" values="0 0 0 0 0 0 0 0 0 0 0 0 0 0 0 0 0 0 127 0" result="hardAlpha"/>
<feOffset dx="7" dy="13"/>
<feGaussianBlur stdDeviation="6.5"/>
<feComposite in2="hardAlpha" operator="out"/>
<feColorMatrix type="matrix" values="0 0 0 0 0 0 0 0 0 0 0 0 0 0 0 0 0 0 0.25 0"/>
<feBlend mode="normal" in2="BackgroundImageFix" result="effect1_dropShadow_311_940"/>
<feBlend mode="normal" in="SourceGraphic" in2="effect1_dropShadow_311_940" result="shape"/>
</filter>
<filter id="filter5_d_311_940" x="130.685" y="145.027" width="127.245" height="168.918" filterUnits="userSpaceOnUse" color-interpolation-filters="sRGB">
<feFlood flood-opacity="0" result="BackgroundImageFix"/>
<feColorMatrix in="SourceAlpha" type="matrix" values="0 0 0 0 0 0 0 0 0 0 0 0 0 0 0 0 0 0 127 0" result="hardAlpha"/>
<feOffset dy="30.4231"/>
<feGaussianBlur stdDeviation="15.2116"/>
<feComposite in2="hardAlpha" operator="out"/>
<feColorMatrix type="matrix" values="0 0 0 0 0 0 0 0 0 0 0 0 0 0 0 0 0 0 0.25 0"/>
<feBlend mode="normal" in2="BackgroundImageFix" result="effect1_dropShadow_311_940"/>
<feBlend mode="normal" in="SourceGraphic" in2="effect1_dropShadow_311_940" result="shape"/>
</filter>
<linearGradient id="paint0_linear_311_940" x1="233.511" y1="282.417" x2="150.266" y2="112.295" gradientUnits="userSpaceOnUse">
<stop stop-color="#E1E1E1"/>
<stop offset="1" stop-color="white"/>
</linearGradient>
<linearGradient id="paint1_linear_311_940" x1="219.03" y1="324.093" x2="-89.2576" y2="-428.397" gradientUnits="userSpaceOnUse">
<stop stop-color="#F24E1E"/>
<stop offset="1" stop-color="#FFC5B4" stop-opacity="0.37"/>
</linearGradient>
</defs>
</svg>
