<svg width="840" height="192" viewBox="0 0 840 192" fill="none" xmlns="http://www.w3.org/2000/svg">
<path d="M839.5 217.5C839.5 247.351 824.524 275.837 797.337 301.799C770.148 327.762 730.779 351.166 682.09 370.832C584.713 410.162 450.155 434.5 301.5 434.5C152.845 434.5 18.2866 410.162 -79.0898 370.832C-127.779 351.166 -167.148 327.762 -194.337 301.799C-221.524 275.837 -236.5 247.351 -236.5 217.5C-236.5 187.649 -221.524 159.163 -194.337 133.201C-167.148 107.238 -127.779 83.8336 -79.0898 64.1679C18.2866 24.8376 152.845 0.5 301.5 0.5C450.155 0.5 584.713 24.8376 682.09 64.1679C730.779 83.8336 770.148 107.238 797.337 133.201C824.524 159.163 839.5 187.649 839.5 217.5Z" stroke="white"/>
</svg>
