<svg width="842" height="325" viewBox="0 0 842 325" fill="none" xmlns="http://www.w3.org/2000/svg">
<path d="M838.217 101.206C844.909 126.182 839.442 153.192 823.743 180.681C808.042 208.173 782.124 236.111 747.983 262.9C679.703 316.477 578.615 365.398 460.902 396.94C343.188 428.481 231.183 436.658 145.262 424.399C102.301 418.269 65.8858 407.033 38.5427 391.075C11.2022 375.118 -7.03745 354.46 -13.7296 329.485C-20.4218 304.509 -14.9549 277.499 0.744365 250.01C16.4451 222.518 42.3636 194.58 76.5043 167.791C144.784 114.214 245.872 65.2927 363.586 33.7515C481.299 2.21023 593.305 -5.96679 679.225 6.2925C722.187 12.4223 758.602 23.6578 785.945 39.616C813.285 55.5726 831.525 76.2307 838.217 101.206Z" stroke="#F3673E"/>
</svg>
