<svg width="794" height="183" viewBox="0 0 794 183" fill="none" xmlns="http://www.w3.org/2000/svg">
<path d="M792.729 218.541C792.729 248.43 778.543 276.946 752.803 302.929C727.061 328.914 689.787 352.338 643.687 372.02C551.489 411.384 424.085 435.744 283.331 435.744C142.578 435.744 15.1731 411.384 -77.0245 372.02C-123.124 352.338 -160.399 328.914 -186.141 302.929C-211.881 276.946 -226.066 248.43 -226.066 218.541C-226.066 188.652 -211.881 160.136 -186.141 134.153C-160.399 108.168 -123.124 84.7443 -77.0245 65.0619C15.1731 25.6978 142.578 1.33844 283.331 1.33844C424.085 1.33844 551.489 25.6978 643.687 65.0619C689.787 84.7443 727.061 108.168 752.803 134.153C778.543 160.136 792.729 188.652 792.729 218.541Z" stroke="white"/>
</svg>
