<svg width="278" height="297" viewBox="0 0 327 400" fill="none" xmlns="http://www.w3.org/2000/svg">
<g filter="url(#filter0_d_311_1324)">
<rect x="59.8461" y="6" width="207.216" height="253.501" rx="21.3625" fill="url(#paint0_linear_311_1324)"/>
</g>
<g filter="url(#filter1_d_311_1324)">
<rect x="10.0001" y="19.5303" width="215.761" height="263.47" rx="21.3625" fill="url(#paint1_linear_311_1324)" shape-rendering="crispEdges"/>
</g>
<g filter="url(#filter2_d_311_1324)">
<rect x="25.6659" y="72.9355" width="172.324" height="14.9537" rx="7.47686" fill="white"/>
</g>
<g filter="url(#filter3_d_311_1324)">
<rect x="25.6659" y="107.116" width="141.704" height="14.9537" rx="7.47686" fill="white"/>
</g>
<g filter="url(#filter4_d_311_1324)">
<rect x="25.6659" y="252.38" width="44.8612" height="14.9537" rx="7.47686" fill="white"/>
</g>
<g filter="url(#filter5_d_311_1324)">
<path d="M26 155.287C30.4883 160.193 34.8401 164.61 39.0234 170.195C43.5714 161.057 48.2265 151.888 55.9073 141.958L53.8377 141C47.3521 147.948 42.3133 154.525 37.9351 162.341C34.8905 159.57 29.97 155.65 26.9656 153.635L26 155.287Z" fill="white"/>
</g>
<g filter="url(#filter6_d_311_1324)">
<path d="M30.4646 210.544C30.1318 210.233 29.6915 210.064 29.2366 210.072C28.7818 210.08 28.3478 210.265 28.0261 210.587C27.7044 210.91 27.5201 211.346 27.5121 211.803C27.504 212.259 27.6729 212.701 27.983 213.035L36.6919 221.777L27.983 230.518C27.8105 230.679 27.6722 230.874 27.5762 231.09C27.4802 231.306 27.4286 231.54 27.4245 231.776C27.4203 232.013 27.4637 232.248 27.552 232.468C27.6403 232.687 27.7717 232.886 27.9385 233.054C28.1052 233.221 28.3038 233.353 28.5224 233.442C28.7411 233.53 28.9752 233.574 29.211 233.57C29.4467 233.565 29.6792 233.514 29.8946 233.417C30.11 233.321 30.3039 233.182 30.4646 233.009L39.1735 224.267L47.8824 233.009C48.0431 233.182 48.2369 233.321 48.4523 233.417C48.6677 233.514 48.9002 233.565 49.136 233.57C49.3717 233.574 49.6059 233.53 49.8245 233.442C50.0432 233.353 50.2418 233.221 50.4085 233.054C50.5752 232.886 50.7067 232.687 50.795 232.468C50.8833 232.248 50.9266 232.013 50.9225 231.776C50.9183 231.54 50.8667 231.306 50.7708 231.09C50.6748 230.874 50.5364 230.679 50.3639 230.518L41.655 221.777L50.3639 213.035C50.6741 212.701 50.8429 212.259 50.8349 211.803C50.8269 211.346 50.6426 210.91 50.3209 210.587C49.9992 210.265 49.5652 210.08 49.1103 210.072C48.6554 210.064 48.2152 210.233 47.8824 210.544L39.1735 219.286L30.4646 210.544Z" fill="white"/>
</g>
<g filter="url(#filter7_d_311_1324)">
<path d="M30.4646 179.213C30.1318 178.902 29.6915 178.732 29.2366 178.741C28.7818 178.749 28.3478 178.934 28.0261 179.256C27.7044 179.579 27.5201 180.015 27.5121 180.472C27.504 180.928 27.6729 181.37 27.983 181.704L36.6919 190.446L27.983 199.187C27.8105 199.348 27.6722 199.543 27.5762 199.759C27.4802 199.975 27.4286 200.209 27.4245 200.445C27.4203 200.682 27.4637 200.917 27.552 201.136C27.6403 201.356 27.7717 201.555 27.9385 201.723C28.1052 201.89 28.3038 202.022 28.5224 202.111C28.7411 202.199 28.9752 202.243 29.211 202.239C29.4467 202.234 29.6792 202.183 29.8946 202.086C30.11 201.99 30.3039 201.851 30.4646 201.678L39.1735 192.936L47.8824 201.678C48.0431 201.851 48.2369 201.99 48.4523 202.086C48.6677 202.183 48.9002 202.234 49.136 202.239C49.3717 202.243 49.6059 202.199 49.8245 202.111C50.0432 202.022 50.2418 201.89 50.4085 201.723C50.5752 201.555 50.7067 201.356 50.795 201.136C50.8833 200.917 50.9266 200.682 50.9225 200.445C50.9183 200.209 50.8667 199.975 50.7708 199.759C50.6748 199.543 50.5364 199.348 50.3639 199.187L41.655 190.446L50.3639 181.704C50.6741 181.37 50.8429 180.928 50.8349 180.472C50.8269 180.015 50.6426 179.579 50.3209 179.256C49.9992 178.934 49.5652 178.749 49.1103 178.741C48.6554 178.732 48.2152 178.902 47.8824 179.213L39.1735 187.955L30.4646 179.213Z" fill="white"/>
</g>
<defs>
<filter id="filter0_d_311_1324" x="49.8461" y="0" width="227.216" height="273.501" filterUnits="userSpaceOnUse" color-interpolation-filters="sRGB">
<feFlood flood-opacity="0" result="BackgroundImageFix"/>
<feColorMatrix in="SourceAlpha" type="matrix" values="0 0 0 0 0 0 0 0 0 0 0 0 0 0 0 0 0 0 127 0" result="hardAlpha"/>
<feOffset dy="4"/>
<feGaussianBlur stdDeviation="5"/>
<feComposite in2="hardAlpha" operator="out"/>
<feColorMatrix type="matrix" values="0 0 0 0 0 0 0 0 0 0 0 0 0 0 0 0 0 0 0.25 0"/>
<feBlend mode="normal" in2="BackgroundImageFix" result="effect1_dropShadow_311_1324"/>
<feBlend mode="normal" in="SourceGraphic" in2="effect1_dropShadow_311_1324" result="shape"/>
</filter>
<filter id="filter1_d_311_1324" x="0.00012207" y="13.5303" width="235.761" height="283.471" filterUnits="userSpaceOnUse" color-interpolation-filters="sRGB">
<feFlood flood-opacity="0" result="BackgroundImageFix"/>
<feColorMatrix in="SourceAlpha" type="matrix" values="0 0 0 0 0 0 0 0 0 0 0 0 0 0 0 0 0 0 127 0" result="hardAlpha"/>
<feOffset dy="4"/>
<feGaussianBlur stdDeviation="5"/>
<feComposite in2="hardAlpha" operator="out"/>
<feColorMatrix type="matrix" values="0 0 0 0 0 0 0 0 0 0 0 0 0 0 0 0 0 0 0.25 0"/>
<feBlend mode="normal" in2="BackgroundImageFix" result="effect1_dropShadow_311_1324"/>
<feBlend mode="normal" in="SourceGraphic" in2="effect1_dropShadow_311_1324" result="shape"/>
</filter>
<filter id="filter2_d_311_1324" x="19.2572" y="72.9355" width="190.838" height="33.4682" filterUnits="userSpaceOnUse" color-interpolation-filters="sRGB">
<feFlood flood-opacity="0" result="BackgroundImageFix"/>
<feColorMatrix in="SourceAlpha" type="matrix" values="0 0 0 0 0 0 0 0 0 0 0 0 0 0 0 0 0 0 127 0" result="hardAlpha"/>
<feOffset dx="2.84833" dy="9.25707"/>
<feGaussianBlur stdDeviation="4.62854"/>
<feComposite in2="hardAlpha" operator="out"/>
<feColorMatrix type="matrix" values="0 0 0 0 0 0 0 0 0 0 0 0 0 0 0 0 0 0 0.23 0"/>
<feBlend mode="normal" in2="BackgroundImageFix" result="effect1_dropShadow_311_1324"/>
<feBlend mode="normal" in="SourceGraphic" in2="effect1_dropShadow_311_1324" result="shape"/>
</filter>
<filter id="filter3_d_311_1324" x="20.6813" y="107.116" width="160.218" height="34.1803" filterUnits="userSpaceOnUse" color-interpolation-filters="sRGB">
<feFlood flood-opacity="0" result="BackgroundImageFix"/>
<feColorMatrix in="SourceAlpha" type="matrix" values="0 0 0 0 0 0 0 0 0 0 0 0 0 0 0 0 0 0 127 0" result="hardAlpha"/>
<feOffset dx="4.27249" dy="9.96915"/>
<feGaussianBlur stdDeviation="4.62854"/>
<feComposite in2="hardAlpha" operator="out"/>
<feColorMatrix type="matrix" values="0 0 0 0 0 0 0 0 0 0 0 0 0 0 0 0 0 0 0.25 0"/>
<feBlend mode="normal" in2="BackgroundImageFix" result="effect1_dropShadow_311_1324"/>
<feBlend mode="normal" in="SourceGraphic" in2="effect1_dropShadow_311_1324" result="shape"/>
</filter>
<filter id="filter4_d_311_1324" x="21.3934" y="252.38" width="63.3753" height="33.4682" filterUnits="userSpaceOnUse" color-interpolation-filters="sRGB">
<feFlood flood-opacity="0" result="BackgroundImageFix"/>
<feColorMatrix in="SourceAlpha" type="matrix" values="0 0 0 0 0 0 0 0 0 0 0 0 0 0 0 0 0 0 127 0" result="hardAlpha"/>
<feOffset dx="4.98458" dy="9.25707"/>
<feGaussianBlur stdDeviation="4.62854"/>
<feComposite in2="hardAlpha" operator="out"/>
<feColorMatrix type="matrix" values="0 0 0 0 0 0 0 0 0 0 0 0 0 0 0 0 0 0 0.25 0"/>
<feBlend mode="normal" in2="BackgroundImageFix" result="effect1_dropShadow_311_1324"/>
<feBlend mode="normal" in="SourceGraphic" in2="effect1_dropShadow_311_1324" result="shape"/>
</filter>
<filter id="filter5_d_311_1324" x="15" y="134" width="51.9072" height="51.1953" filterUnits="userSpaceOnUse" color-interpolation-filters="sRGB">
<feFlood flood-opacity="0" result="BackgroundImageFix"/>
<feColorMatrix in="SourceAlpha" type="matrix" values="0 0 0 0 0 0 0 0 0 0 0 0 0 0 0 0 0 0 127 0" result="hardAlpha"/>
<feOffset dy="4"/>
<feGaussianBlur stdDeviation="5.5"/>
<feComposite in2="hardAlpha" operator="out"/>
<feColorMatrix type="matrix" values="0 0 0 0 0 0 0 0 0 0 0 0 0 0 0 0 0 0 0.25 0"/>
<feBlend mode="normal" in2="BackgroundImageFix" result="effect1_dropShadow_311_1324"/>
<feBlend mode="normal" in="SourceGraphic" in2="effect1_dropShadow_311_1324" result="shape"/>
</filter>
<filter id="filter6_d_311_1324" x="23.4242" y="210.071" width="31.4985" height="31.499" filterUnits="userSpaceOnUse" color-interpolation-filters="sRGB">
<feFlood flood-opacity="0" result="BackgroundImageFix"/>
<feColorMatrix in="SourceAlpha" type="matrix" values="0 0 0 0 0 0 0 0 0 0 0 0 0 0 0 0 0 0 127 0" result="hardAlpha"/>
<feOffset dy="4"/>
<feGaussianBlur stdDeviation="2"/>
<feComposite in2="hardAlpha" operator="out"/>
<feColorMatrix type="matrix" values="0 0 0 0 0 0 0 0 0 0 0 0 0 0 0 0 0 0 0.25 0"/>
<feBlend mode="normal" in2="BackgroundImageFix" result="effect1_dropShadow_311_1324"/>
<feBlend mode="normal" in="SourceGraphic" in2="effect1_dropShadow_311_1324" result="shape"/>
</filter>
<filter id="filter7_d_311_1324" x="23.4242" y="178.74" width="31.4985" height="31.499" filterUnits="userSpaceOnUse" color-interpolation-filters="sRGB">
<feFlood flood-opacity="0" result="BackgroundImageFix"/>
<feColorMatrix in="SourceAlpha" type="matrix" values="0 0 0 0 0 0 0 0 0 0 0 0 0 0 0 0 0 0 127 0" result="hardAlpha"/>
<feOffset dy="4"/>
<feGaussianBlur stdDeviation="2"/>
<feComposite in2="hardAlpha" operator="out"/>
<feColorMatrix type="matrix" values="0 0 0 0 0 0 0 0 0 0 0 0 0 0 0 0 0 0 0.25 0"/>
<feBlend mode="normal" in2="BackgroundImageFix" result="effect1_dropShadow_311_1324"/>
<feBlend mode="normal" in="SourceGraphic" in2="effect1_dropShadow_311_1324" result="shape"/>
</filter>
<linearGradient id="paint0_linear_311_1324" x1="240.359" y1="270.539" x2="156.441" y2="99.0412" gradientUnits="userSpaceOnUse">
<stop stop-color="#E1E1E1"/>
<stop offset="1" stop-color="white"/>
</linearGradient>
<linearGradient id="paint1_linear_311_1324" x1="225.761" y1="312.552" x2="-85.0196" y2="-446.021" gradientUnits="userSpaceOnUse">
<stop stop-color="#F24E1E"/>
<stop offset="1" stop-color="#FFC5B4" stop-opacity="0.37"/>
</linearGradient>
</defs>
</svg>
