<svg width="280" height="314" viewBox="0 0 327 400" fill="none" xmlns="http://www.w3.org/2000/svg">
<g filter="url(#filter0_d_223_732)">
<rect x="60.3297" y="6" width="208.976" height="256.024" rx="32.8235" fill="url(#paint0_linear_223_732)"/>
</g>
<g filter="url(#filter1_d_223_732)">
<rect x="10.0002" y="19.1304" width="217.729" height="265.871" rx="32.8235" fill="url(#paint1_linear_223_732)" shape-rendering="crispEdges"/>
</g>
<g filter="url(#filter2_d_223_732)">
<rect x="25.3176" y="73.8367" width="173.965" height="14.2235" rx="7.11176" fill="white"/>
</g>
<g filter="url(#filter3_d_223_732)">
<rect x="25.3176" y="107.752" width="143.329" height="15.3176" rx="7.65882" fill="white"/>
</g>
<g filter="url(#filter4_d_223_732)">
<rect x="25.3176" y="254.365" width="45.9529" height="15.3176" rx="7.65882" fill="white"/>
</g>
<g filter="url(#filter5_d_223_732)">
<path d="M179.225 227.617H194.176C194.716 227.617 195.177 227.258 195.204 226.811L199.281 168.832C199.298 168.595 199.192 168.367 198.997 168.201C198.802 168.025 198.536 167.929 198.253 167.929H175.139C174.855 167.929 174.59 168.025 174.395 168.201C174.208 168.367 174.102 168.604 174.12 168.832L178.197 226.811C178.223 227.258 178.675 227.617 179.225 227.617ZM174.598 258.097C174.598 255.958 174.909 254.153 175.529 252.672C176.149 251.191 177.009 249.999 178.117 249.096C179.216 248.185 180.519 247.528 182.016 247.116C183.505 246.713 185.101 246.502 186.811 246.502C188.424 246.502 189.948 246.713 191.402 247.116C192.846 247.528 194.123 248.185 195.231 249.096C196.329 249.999 197.207 251.191 197.854 252.672C198.501 254.153 198.82 255.958 198.82 258.097C198.82 260.138 198.501 261.882 197.854 263.337C197.207 264.801 196.338 266.001 195.231 266.956C194.123 267.912 192.855 268.595 191.402 269.033C189.948 269.463 188.424 269.682 186.811 269.682C185.109 269.682 183.514 269.463 182.016 269.033C180.519 268.595 179.216 267.903 178.117 266.956C177.018 265.992 176.149 264.801 175.529 263.337C174.909 261.891 174.598 260.138 174.598 258.097Z" fill="white"/>
</g>
<defs>
<filter id="filter0_d_223_732" x="50.3297" y="0" width="228.976" height="276.023" filterUnits="userSpaceOnUse" color-interpolation-filters="sRGB">
<feFlood flood-opacity="0" result="BackgroundImageFix"/>
<feColorMatrix in="SourceAlpha" type="matrix" values="0 0 0 0 0 0 0 0 0 0 0 0 0 0 0 0 0 0 127 0" result="hardAlpha"/>
<feOffset dy="4"/>
<feGaussianBlur stdDeviation="5"/>
<feComposite in2="hardAlpha" operator="out"/>
<feColorMatrix type="matrix" values="0 0 0 0 0 0 0 0 0 0 0 0 0 0 0 0 0 0 0.25 0"/>
<feBlend mode="normal" in2="BackgroundImageFix" result="effect1_dropShadow_223_732"/>
<feBlend mode="normal" in="SourceGraphic" in2="effect1_dropShadow_223_732" result="shape"/>
</filter>
<filter id="filter1_d_223_732" x="0.000244141" y="13.1304" width="237.729" height="285.871" filterUnits="userSpaceOnUse" color-interpolation-filters="sRGB">
<feFlood flood-opacity="0" result="BackgroundImageFix"/>
<feColorMatrix in="SourceAlpha" type="matrix" values="0 0 0 0 0 0 0 0 0 0 0 0 0 0 0 0 0 0 127 0" result="hardAlpha"/>
<feOffset dy="4"/>
<feGaussianBlur stdDeviation="5"/>
<feComposite in2="hardAlpha" operator="out"/>
<feColorMatrix type="matrix" values="0 0 0 0 0 0 0 0 0 0 0 0 0 0 0 0 0 0 0.25 0"/>
<feBlend mode="normal" in2="BackgroundImageFix" result="effect1_dropShadow_223_732"/>
<feBlend mode="normal" in="SourceGraphic" in2="effect1_dropShadow_223_732" result="shape"/>
</filter>
<filter id="filter2_d_223_732" x="15.4706" y="73.8367" width="202.412" height="42.6707" filterUnits="userSpaceOnUse" color-interpolation-filters="sRGB">
<feFlood flood-opacity="0" result="BackgroundImageFix"/>
<feColorMatrix in="SourceAlpha" type="matrix" values="0 0 0 0 0 0 0 0 0 0 0 0 0 0 0 0 0 0 127 0" result="hardAlpha"/>
<feOffset dx="4.37647" dy="14.2235"/>
<feGaussianBlur stdDeviation="7.11176"/>
<feComposite in2="hardAlpha" operator="out"/>
<feColorMatrix type="matrix" values="0 0 0 0 0 0 0 0 0 0 0 0 0 0 0 0 0 0 0.23 0"/>
<feBlend mode="normal" in2="BackgroundImageFix" result="effect1_dropShadow_223_732"/>
<feBlend mode="normal" in="SourceGraphic" in2="effect1_dropShadow_223_732" result="shape"/>
</filter>
<filter id="filter3_d_223_732" x="17.6588" y="107.752" width="171.776" height="44.8588" filterUnits="userSpaceOnUse" color-interpolation-filters="sRGB">
<feFlood flood-opacity="0" result="BackgroundImageFix"/>
<feColorMatrix in="SourceAlpha" type="matrix" values="0 0 0 0 0 0 0 0 0 0 0 0 0 0 0 0 0 0 127 0" result="hardAlpha"/>
<feOffset dx="6.56471" dy="15.3176"/>
<feGaussianBlur stdDeviation="7.11176"/>
<feComposite in2="hardAlpha" operator="out"/>
<feColorMatrix type="matrix" values="0 0 0 0 0 0 0 0 0 0 0 0 0 0 0 0 0 0 0.25 0"/>
<feBlend mode="normal" in2="BackgroundImageFix" result="effect1_dropShadow_223_732"/>
<feBlend mode="normal" in="SourceGraphic" in2="effect1_dropShadow_223_732" result="shape"/>
</filter>
<filter id="filter4_d_223_732" x="18.7529" y="254.365" width="74.3999" height="43.7647" filterUnits="userSpaceOnUse" color-interpolation-filters="sRGB">
<feFlood flood-opacity="0" result="BackgroundImageFix"/>
<feColorMatrix in="SourceAlpha" type="matrix" values="0 0 0 0 0 0 0 0 0 0 0 0 0 0 0 0 0 0 127 0" result="hardAlpha"/>
<feOffset dx="7.65882" dy="14.2235"/>
<feGaussianBlur stdDeviation="7.11176"/>
<feComposite in2="hardAlpha" operator="out"/>
<feColorMatrix type="matrix" values="0 0 0 0 0 0 0 0 0 0 0 0 0 0 0 0 0 0 0.25 0"/>
<feBlend mode="normal" in2="BackgroundImageFix" result="effect1_dropShadow_223_732"/>
<feBlend mode="normal" in="SourceGraphic" in2="effect1_dropShadow_223_732" result="shape"/>
</filter>
<filter id="filter5_d_223_732" x="143.483" y="156.988" width="86.4353" height="163.024" filterUnits="userSpaceOnUse" color-interpolation-filters="sRGB">
<feFlood flood-opacity="0" result="BackgroundImageFix"/>
<feColorMatrix in="SourceAlpha" type="matrix" values="0 0 0 0 0 0 0 0 0 0 0 0 0 0 0 0 0 0 127 0" result="hardAlpha"/>
<feOffset dy="19.6941"/>
<feGaussianBlur stdDeviation="15.3176"/>
<feComposite in2="hardAlpha" operator="out"/>
<feColorMatrix type="matrix" values="0 0 0 0 0 0 0 0 0 0 0 0 0 0 0 0 0 0 0.29 0"/>
<feBlend mode="normal" in2="BackgroundImageFix" result="effect1_dropShadow_223_732"/>
<feBlend mode="normal" in="SourceGraphic" in2="effect1_dropShadow_223_732" result="shape"/>
</filter>
<linearGradient id="paint0_linear_223_732" x1="242.376" y1="273.171" x2="157.548" y2="100.063" gradientUnits="userSpaceOnUse">
<stop stop-color="#E1E1E1"/>
<stop offset="1" stop-color="white"/>
</linearGradient>
<linearGradient id="paint1_linear_223_732" x1="227.73" y1="314.822" x2="-85.8791" y2="-450.665" gradientUnits="userSpaceOnUse">
<stop stop-color="#F24E1E"/>
<stop offset="1" stop-color="#FFC5B4" stop-opacity="0.37"/>
</linearGradient>
</defs>
</svg>
