<svg width="840" height="192" viewBox="0 0 840 192" fill="none" xmlns="http://www.w3.org/2000/svg">
<path d="M792.729 227.541C792.729 257.43 778.543 285.946 752.803 311.929C727.061 337.914 689.787 361.338 643.687 381.02C551.489 420.384 424.085 444.744 283.331 444.744C142.578 444.744 15.1731 420.384 -77.0245 381.02C-123.124 361.338 -160.399 337.914 -186.141 311.929C-211.881 285.946 -226.066 257.43 -226.066 227.541C-226.066 197.652 -211.881 169.136 -186.141 143.153C-160.399 117.168 -123.124 93.7443 -77.0245 74.0619C15.1731 34.6978 142.578 10.3384 283.331 10.3384C424.085 10.3384 551.489 34.6978 643.687 74.0619C689.787 93.7443 727.061 117.168 752.803 143.153C778.543 169.136 792.729 197.652 792.729 227.541Z" stroke="white"/>
<path d="M839.5 217.5C839.5 247.351 824.524 275.837 797.337 301.799C770.148 327.762 730.779 351.166 682.09 370.832C584.713 410.162 450.155 434.5 301.5 434.5C152.845 434.5 18.2866 410.162 -79.0898 370.832C-127.779 351.166 -167.148 327.762 -194.337 301.799C-221.524 275.837 -236.5 247.351 -236.5 217.5C-236.5 187.649 -221.524 159.163 -194.337 133.201C-167.148 107.238 -127.779 83.8336 -79.0898 64.1679C18.2866 24.8376 152.845 0.5 301.5 0.5C450.155 0.5 584.713 24.8376 682.09 64.1679C730.779 83.8336 770.148 107.238 797.337 133.201C824.524 159.163 839.5 187.649 839.5 217.5Z" stroke="white"/>
</svg>
